<svg width="19" height="19" viewBox="0 0 19 19" fill="none" xmlns="http://www.w3.org/2000/svg">
<path d="M0 4.5C-8.80582e-09 5.09095 0.116396 5.67611 0.342542 6.22208C0.568688 6.76804 0.900156 7.26412 1.31802 7.68198C1.73588 8.09984 2.23196 8.43131 2.77792 8.65746C3.32389 8.8836 3.90905 9 4.5 9C5.09095 9 5.67611 8.8836 6.22208 8.65746C6.76804 8.43131 7.26412 8.09984 7.68198 7.68198C8.09984 7.26412 8.43131 6.76804 8.65746 6.22208C8.8836 5.67611 9 5.09095 9 4.5C9 3.30653 8.52589 2.16193 7.68198 1.31802C6.83807 0.474106 5.69347 0 4.5 0C3.30653 0 2.16193 0.474106 1.31802 1.31802C0.474106 2.16193 1.77842e-08 3.30653 0 4.5ZM0 14.5C-8.80582e-09 15.0909 0.116396 15.6761 0.342542 16.2221C0.568688 16.768 0.900156 17.2641 1.31802 17.682C1.73588 18.0998 2.23196 18.4313 2.77792 18.6575C3.32389 18.8836 3.90905 19 4.5 19C5.09095 19 5.67611 18.8836 6.22208 18.6575C6.76804 18.4313 7.26412 18.0998 7.68198 17.682C8.09984 17.2641 8.43131 16.768 8.65746 16.2221C8.8836 15.6761 9 15.0909 9 14.5C9 13.3065 8.52589 12.1619 7.68198 11.318C6.83807 10.4741 5.69347 10 4.5 10C3.30653 10 2.16193 10.4741 1.31802 11.318C0.474106 12.1619 1.77842e-08 13.3065 0 14.5ZM10 14.5C10 15.6935 10.4741 16.8381 11.318 17.682C12.1619 18.5259 13.3065 19 14.5 19C15.6935 19 16.8381 18.5259 17.682 17.682C18.5259 16.8381 19 15.6935 19 14.5C19 13.3065 18.5259 12.1619 17.682 11.318C16.8381 10.4741 15.6935 10 14.5 10C13.3065 10 12.1619 10.4741 11.318 11.318C10.4741 12.1619 10 13.3065 10 14.5ZM15.025 8.655L15.303 8.019C15.7885 6.8919 16.6792 5.98798 17.799 5.486L18.653 5.106C19.116 4.901 19.116 4.228 18.653 4.023L17.847 3.664C16.6978 3.14951 15.7907 2.21238 15.314 1.047L15.029 0.359C14.9866 0.253373 14.9136 0.162854 14.8193 0.0990982C14.725 0.0353427 14.6138 0.00127101 14.5 0.00127101C14.3862 0.00127101 14.275 0.0353427 14.1807 0.0990982C14.0864 0.162854 14.0134 0.253373 13.971 0.359L13.686 1.047C13.2093 2.21238 12.3022 3.14951 11.153 3.664L10.347 4.023C9.884 4.228 9.884 4.901 10.347 5.106L11.201 5.486C12.3208 5.98798 13.2115 6.8919 13.697 8.019L13.975 8.655C14.0186 8.75818 14.0917 8.84622 14.1851 8.90811C14.2784 8.97001 14.388 9.00302 14.5 9.00302C14.612 9.00302 14.7216 8.97001 14.8149 8.90811C14.9083 8.84622 14.9814 8.75818 15.025 8.655Z" fill="white"/>
</svg>
