<svg width="25" height="35" viewBox="0 0 25 35" fill="none" xmlns="http://www.w3.org/2000/svg">
<mask id="mask0_32_191" style="mask-type:luminance" maskUnits="userSpaceOnUse" x="0" y="0" width="25" height="35">
<path d="M12.375 33.5C18.6572 33.5 23.75 28.4072 23.75 22.125C23.75 15.8428 18.6572 10.75 12.375 10.75C6.09276 10.75 1 15.8428 1 22.125C1 28.4072 6.09276 33.5 12.375 33.5Z" fill="white" stroke="white" stroke-width="2"/>
<path d="M18.0625 12.375V6.6875C18.0625 5.94061 17.9154 5.20103 17.6296 4.51099C17.3437 3.82095 16.9248 3.19396 16.3967 2.66583C15.8685 2.1377 15.2416 1.71876 14.5515 1.43294C13.8615 1.14711 13.1219 1 12.375 1C11.6281 1 10.8885 1.14711 10.1985 1.43294C9.50845 1.71876 8.88146 2.1377 8.35333 2.66583C7.8252 3.19396 7.40626 3.82095 7.12043 4.51099C6.83461 5.20103 6.6875 5.94061 6.6875 6.6875V12.375" stroke="white" stroke-width="2" stroke-linejoin="round"/>
<path d="M12.375 18.875V25.375" stroke="black" stroke-width="2" stroke-linecap="round" stroke-linejoin="round"/>
</mask>
<g mask="url(#mask0_32_191)">
<path d="M-7.125 -2.25H31.875V36.75H-7.125V-2.25Z" fill="white"/>
</g>
</svg>
