<svg width="45" height="15" viewBox="0 0 45 15" fill="none" xmlns="http://www.w3.org/2000/svg">
<path d="M14.118 9.29908L14.1008 9.30388C13.9186 9.35346 13.7345 9.37533 13.5528 9.37213C13.1466 9.41532 12.7317 9.44251 12.3389 9.44091L3.32196 10.5809C3.80555 10.4529 4.1572 10.0621 4.1572 9.59981C4.1572 9.03301 3.62881 8.57338 2.97646 8.57338C2.95743 8.57338 2.93841 8.57392 2.91938 8.57498C2.90772 8.57551 2.89545 8.57605 2.88379 8.57711L8.10814 7.40832C10.0517 6.56479 11.7688 6.43149 12.6587 6.43149C13.0692 6.43149 13.3037 6.45975 13.3037 6.45975L13.303 6.46028C14.1156 6.33658 14.9318 6.74715 15.1963 7.44831C15.4866 8.21773 15.0036 9.04687 14.118 9.29908Z" fill="white"/>
<path d="M4.15702 9.59976C4.15702 10.062 3.80538 10.4529 3.32179 10.5809C3.28681 10.5905 3.25183 10.5985 3.21562 10.6049H3.21439C3.13768 10.6187 3.0579 10.6256 2.97628 10.6256H2.96523C2.67127 10.623 2.40248 10.5275 2.19689 10.3702C1.95019 10.1826 1.79492 9.90689 1.79492 9.59976C1.79492 9.51978 1.80535 9.44246 1.82561 9.36781C1.90232 9.07828 2.12018 8.83567 2.41291 8.69757C2.41721 8.69544 2.42089 8.69384 2.42457 8.69224C2.56326 8.62825 2.71853 8.58773 2.88361 8.57707C2.89527 8.576 2.90754 8.57547 2.9192 8.57493C2.93823 8.57387 2.95725 8.57333 2.97628 8.57333C3.62863 8.57333 4.15702 9.03296 4.15702 9.59976Z" fill="white"/>
<path d="M0.497479 8.28364C0.485512 8.28598 0.473177 8.28881 0.461762 8.29153C-0.328181 8.48673 0.183453 9.75305 0.183453 9.75305L0.464278 11.8953C1.00015 13.9145 1.7947 14.4427 2.37648 14.5241C2.45786 14.5355 2.53475 14.5285 2.60348 14.5076L2.60477 14.5073C2.61692 14.5038 2.62883 14.4994 2.64074 14.4946C2.64116 14.4945 2.64209 14.4944 2.64245 14.494C2.71677 14.4645 2.7801 14.4185 2.82736 14.3621C2.83202 14.3562 2.83681 14.3506 2.84141 14.3442C2.91174 14.2501 2.9404 14.1296 2.90567 14.0063C2.8891 13.9473 2.8778 13.8846 2.87118 13.8184L2.86903 13.7999C2.76145 12.6499 3.51212 10.557 3.51212 10.557C3.51212 10.557 1.60973 10.0418 2.7021 8.57381C2.05724 8.55003 1.41366 8.40345 1.06883 8.33429C1.05723 8.33184 1.04569 8.32971 1.03458 8.32752C0.857777 8.29286 0.754984 8.26775 0.754984 8.26775C0.65753 8.26289 0.572165 8.26855 0.497479 8.28364Z" fill="white"/>
<path d="M0.497559 8.28399C0.551379 14.1045 2.63953 14.4952 2.63953 14.4952L2.64088 14.495C2.64131 14.4949 2.64223 14.4948 2.64259 14.4943C2.71691 14.4649 2.78018 14.4188 2.82744 14.3625C2.8321 14.3565 2.83689 14.3509 2.84149 14.3446C0.826988 13.858 1.05142 8.69018 1.06897 8.33464C1.05737 8.33219 1.04583 8.33011 1.03472 8.32792C0.857918 8.29326 0.755125 8.26815 0.755125 8.26815C0.657671 8.2633 0.572245 8.2689 0.497559 8.28399Z" fill="white"/>
<path d="M14.7901 6.03949L16.0535 9.29515C16.0535 9.29515 15.0051 9.39208 13.7887 9.36238C13.5987 9.38158 13.4128 9.37289 13.2357 9.33983C12.5562 9.21223 12.0107 8.72563 11.9172 8.09218C11.8092 7.35987 12.3424 6.68483 13.1378 6.49304C13.215 6.47411 13.2951 6.46003 13.3769 6.45091C13.4071 6.44755 13.4368 6.44505 13.4667 6.44291C13.8901 6.36757 14.303 6.24616 14.6956 6.08017C14.7576 6.05421 14.7901 6.03949 14.7901 6.03949Z" fill="white"/>
<path d="M19.7177 3.7894L19.2531 4.00157L15.6647 5.64001L15.3929 5.7644L14.79 6.03959C14.79 6.03959 14.8296 6.4741 14.9506 7.03504C15.0226 7.3708 15.1238 7.75177 15.2636 8.11222C15.4503 8.596 15.7058 9.0431 16.0517 9.29514L16.0519 9.29552L16.0536 9.2952L16.6916 9.14233L16.9668 9.07653L21.1958 8.06535L21.4067 8.01486L24.8761 7.39415C24.9438 7.39069 25.2258 7.34094 25.5005 7.2785C25.8237 7.17063 26.1177 7.01632 26.3726 6.82581C27.1081 6.27676 27.5217 5.42726 27.389 4.52886C27.2264 3.42826 26.2926 2.57849 25.1194 2.33561C25.122 2.33268 25.1244 2.3298 25.127 2.32692C25.127 2.32692 24.8354 2.26928 24.375 2.23777C23.2298 2.1596 21.0423 2.24465 19.7177 3.7894Z" fill="white"/>
<path d="M15.6644 5.64014L15.3926 5.76437C15.4368 6.16817 15.7214 8.38189 16.6913 9.14246L16.9666 9.0765C15.9186 8.25056 15.6727 5.7302 15.6644 5.64014Z" fill="white"/>
<path d="M14.113 9.07816L14.0965 9.08321C13.9156 9.13557 13.7315 9.1601 13.5505 9.15888C13.145 9.20848 12.7318 9.24157 12.3388 9.24546L3.54642 10.4896L3.26582 10.5294C3.2377 10.5336 2.90011 10.5758 2.72276 10.5981C3.25764 10.4937 3.65158 10.0729 3.64019 9.57537C3.62717 9.00603 3.0887 8.55171 2.43695 8.56082C2.41794 8.56108 2.39895 8.56188 2.37997 8.56322L3.15917 8.44143L8.06577 7.26278C10.8744 5.98485 13.2341 6.23746 13.2341 6.23746L13.2335 6.238C14.043 6.1024 14.8673 6.50343 15.1477 7.20405C15.4554 7.97287 14.9925 8.81192 14.113 9.07816Z" fill="white"/>
<path d="M3.6312 9.5808C3.6423 10.077 3.24862 10.4963 2.71434 10.6002L2.71311 10.6003C2.64958 10.6081 2.60744 10.6134 2.60744 10.6134C2.55979 10.6194 2.5121 10.6233 2.46496 10.6244L2.45087 10.6246C1.82135 10.6331 1.28117 10.1991 1.25751 9.63416C1.24128 9.23689 1.48812 8.87988 1.87063 8.70056C1.87487 8.69836 1.87851 8.69671 1.88215 8.69506C1.98645 8.64771 2.10022 8.61305 2.2217 8.59432L2.37309 8.57091C2.39205 8.56959 2.41102 8.5688 2.43 8.56854C3.08096 8.55977 3.61851 9.01306 3.6312 9.5808Z" fill="white"/>
<path d="M0.475352 8.25678C0.463487 8.25929 0.451266 8.26228 0.439959 8.26516C-0.342365 8.4712 0.19499 9.73152 0.19499 9.73152L0.521785 11.8715C1.09985 13.885 1.90268 14.4028 2.4838 14.4764C2.56509 14.4867 2.64151 14.4787 2.70949 14.4568L2.71077 14.4565C2.72279 14.4528 2.73455 14.4483 2.7463 14.4433C2.74673 14.4432 2.74764 14.4431 2.748 14.4426C2.82135 14.4122 2.88341 14.3652 2.92922 14.3082C2.93374 14.3022 2.93838 14.2965 2.94282 14.2901C3.01078 14.195 3.03667 14.0739 2.99937 13.951C2.98157 13.8922 2.96894 13.8296 2.96089 13.7635L2.95834 13.745C2.8259 12.5956 3.52735 10.491 3.52735 10.491C3.52735 10.491 1.62163 10.0012 2.67709 8.51734C2.03441 8.50226 1.39031 8.36428 1.04541 8.29974C1.03381 8.29744 1.02227 8.29547 1.01116 8.29343C0.834337 8.26114 0.731424 8.23739 0.731424 8.23739C0.634273 8.23386 0.549392 8.24067 0.475352 8.25678Z" fill="white"/>
<path d="M0.477436 8.2579C0.658823 14.0803 2.74302 14.4434 2.74302 14.4434L2.74436 14.4432C2.74479 14.4431 2.7457 14.443 2.74605 14.4425C2.81928 14.412 2.88116 14.3651 2.92689 14.3082C2.9314 14.3021 2.93603 14.2965 2.94047 14.29C0.927362 13.83 1.03689 8.65692 1.04653 8.30099C1.03495 8.29869 1.02343 8.29676 1.01234 8.29472C0.835837 8.2624 0.733109 8.23864 0.733109 8.23864C0.636133 8.23508 0.551343 8.24181 0.477436 8.2579Z" fill="white"/>
<path d="M14.8142 5.84748L15.9754 9.14117C15.9754 9.14117 14.9263 9.21055 13.7135 9.1487C13.5233 9.16289 13.3381 9.14932 13.1625 9.11154C12.4884 8.96583 11.9589 8.46406 11.885 7.82724C11.7995 7.09108 12.3522 6.42913 13.1517 6.25802C13.2293 6.24112 13.3097 6.22915 13.3916 6.22218C13.4218 6.21964 13.4516 6.21791 13.4814 6.21655C13.9061 6.15227 14.3218 6.04158 14.7187 5.88573C14.7813 5.86138 14.8142 5.84748 14.8142 5.84748Z" fill="white"/>
<path d="M19.8144 3.71058L19.3442 3.91125L15.7128 5.46077L15.4378 5.57845L14.8277 5.83866C14.8277 5.83866 14.8543 6.27526 14.9585 6.84075C15.0204 7.17914 15.1103 7.56368 15.2392 7.92864C15.4112 8.41847 15.6531 8.87326 15.991 9.13487L15.9911 9.13525L15.9929 9.13495L16.6344 8.99823L16.9112 8.93941L21.1636 8.03529L21.3757 7.99015L24.8581 7.45778C24.9258 7.45604 25.2088 7.4135 25.485 7.35795C25.8108 7.25823 26.109 7.11113 26.3691 6.9268C27.1198 6.39545 27.5579 5.55454 27.452 4.65057C27.3223 3.54305 26.4151 2.66698 25.2509 2.39313C25.2535 2.39026 25.2561 2.3875 25.2587 2.38468C25.2587 2.38468 24.9693 2.31938 24.5106 2.27584C23.3695 2.16784 21.1827 2.1964 19.8144 3.71058Z" fill="white"/>
<path d="M15.7057 5.46865L15.4318 5.58583C15.4638 5.99078 15.6813 8.21223 16.6229 8.99803L16.8985 8.9392C15.8811 8.08598 15.7112 5.55897 15.7057 5.46865Z" fill="white"/>
<path d="M43.5911 3.90513C43.477 4.07549 43.1293 4.30392 42.7871 4.40021C42.4452 4.49592 42.2863 4.72968 42.0155 4.64042C41.7458 4.55111 41.4259 4.71129 41.1837 4.9837C40.9148 5.28694 40.733 5.42349 40.5628 5.18653C40.3928 4.94856 40.4236 4.98375 40.3483 5.01249C40.2724 5.03963 40.1833 5.17662 40.0005 5.04849C40.0005 5.04849 39.8791 5.19288 39.729 5.10757C39.5789 5.02375 39.516 4.98674 39.4053 5.07637C39.2933 5.16654 38.9072 5.36974 38.6776 5.07819C38.4471 4.78412 38.4575 4.0966 38.3251 4.03315C38.1919 3.97071 38.2089 4.10343 37.6874 3.84818C37.1672 3.59438 36.4057 3.84509 36.4057 3.84509C36.4057 3.84509 35.0853 2.4539 36.0876 1.49626C36.0876 1.49626 38.3759 1.37842 38.6081 1.25728C38.6081 1.25728 38.5792 1.64945 38.7852 1.57859C38.7852 1.57859 39.0898 1.7209 39.2334 1.64844C39.2334 1.64844 39.6367 1.68672 39.7856 1.52622C39.7856 1.52622 39.9656 1.55038 40.0714 1.44507C40.1774 1.33763 40.279 1.25104 40.4941 1.19676C40.7079 1.14205 41.665 1.89355 41.7614 1.91227C41.8584 1.93253 42.0771 2.06844 42.1816 1.98932C42.2862 1.91125 42.3709 1.92224 42.4399 1.97695C42.508 2.03064 43.5911 3.90513 43.5911 3.90513Z" fill="white"/>
<path d="M38.4082 1.26111C39.2353 1.2979 40.0123 0.68434 40.6589 0.308002C41.3053 -0.0683887 43.1139 -0.316703 43.7298 0.906741C44.3455 2.12816 44.2703 3.59629 45.0005 3.58808C45.0005 3.58808 44.0929 4.27922 43.4634 3.97903C43.4634 3.97903 42.4623 2.51953 40.6206 2.79328L40.4819 2.49863C40.4819 2.49863 41.364 2.38074 41.2243 1.96809C41.0928 1.57714 40.6344 1.90549 40.3922 1.91413C40.1508 1.92271 39.6901 1.72212 39.7958 2.15562C39.7958 2.15562 39.4453 2.32507 38.8167 1.73183C38.5242 1.45664 38.4082 1.26111 38.4082 1.26111Z" fill="white"/>
<path d="M38.5017 4.6414C38.5002 4.63068 38.4092 3.93794 38.6485 3.38644C38.9166 2.7676 39.486 2.49438 39.486 2.49438C39.486 2.49438 38.2218 3.0301 38.0703 3.99942C38.1791 4.0313 38.2726 4.008 38.3256 4.03311C38.4086 4.07241 38.4355 4.36029 38.5017 4.6414Z" fill="white"/>
<path d="M33.0296 1.41211C31.677 2.00962 31.0687 3.32829 31.6709 4.35728C32.273 5.38632 33.858 5.73578 35.2106 5.13827C36.5628 4.54081 37.1715 3.22208 36.5689 2.19315C35.9667 1.16417 34.3822 0.814596 33.0296 1.41211Z" fill="white"/>
<path d="M27.045 7.03842L25.7565 7.26045C25.7565 7.26045 23.6148 4.08125 24.99 2.33601L33.6939 0.836366C33.6939 0.836366 36.8513 0.21134 37.3121 2.51021C37.5089 3.49414 37.0906 4.50014 36.2649 5.24087C35.3932 6.02367 33.9581 6.9618 32.0459 7.01405L27.045 7.03842Z" fill="white"/>
<path d="M33.0705 1.4819C31.7686 2.05712 31.183 3.32626 31.7629 4.31653C32.3424 5.30691 33.8676 5.64342 35.1695 5.06857C36.4713 4.49335 37.0566 3.22431 36.4771 2.23399C35.8976 1.24361 34.3724 0.907046 33.0705 1.4819ZM36.3135 2.30597C36.8533 3.22767 36.308 4.40899 35.0968 4.94412C33.8852 5.47941 32.4655 5.16631 31.9261 4.24455C31.3867 3.3228 31.9316 2.14163 33.1432 1.6064C34.3548 1.07111 35.7741 1.38421 36.3135 2.30597Z" fill="white"/>
<path d="M33.1436 1.60629C31.932 2.14152 31.3871 3.32273 31.9264 4.24449C32.4658 5.16625 33.8856 5.47929 35.0972 4.94406C36.3084 4.40888 36.8536 3.22761 36.3138 2.30591C35.7745 1.38415 34.3552 1.07105 33.1436 1.60629Z" fill="white"/>
<path d="M32.1905 3.12484C32.2101 2.13873 33.1399 1.34702 34.2784 1.35315C35.3174 1.35881 36.1729 2.02681 36.3191 2.89295C36.3198 2.89839 36.3209 2.90383 36.3217 2.90927C36.3352 2.99389 36.3416 3.08011 36.3409 3.16771C36.3409 3.17448 36.3409 3.18163 36.3404 3.1884C36.3322 3.60158 36.1639 3.98027 35.8878 4.28073H35.888L35.7132 8.30698C35.7239 8.95163 35.1312 9.48174 34.3892 9.49102C33.6473 9.5003 33.0372 8.98527 33.0265 8.34062C33.0262 8.32447 33.0266 8.30847 33.0271 8.29242H33.0266L32.627 4.26303C32.412 4.02292 32.2649 3.73467 32.2118 3.41997C32.2104 3.41181 32.2093 3.40334 32.2081 3.39518C32.1954 3.31328 32.1894 3.2301 32.19 3.14521C32.19 3.13844 32.1901 3.13161 32.1905 3.12484Z" fill="white"/>
<path d="M35.6566 8.65912C35.6566 8.65912 36.2919 6.28725 35.881 4.44059C35.4701 2.59388 35.3867 5.34566 35.3867 5.34566L35.5595 8.06241L35.6566 8.65912Z" fill="white"/>
<path d="M32.7022 4.2106C32.7022 4.2106 32.6002 6.67498 33.0725 8.28196C33.5448 9.88894 32.7022 4.2106 32.7022 4.2106Z" fill="white"/>
<path d="M35.2643 13.651H35.2648L35.3504 12.6007C35.4887 12.0427 35.6625 11.0278 35.5927 9.62326L35.6374 8.71121H35.6372C35.6852 8.59279 35.7122 8.46572 35.7134 8.33317C35.7193 7.68847 35.1225 7.16171 34.3806 7.15659C33.6386 7.15147 33.0323 7.66991 33.0264 8.31456C33.0254 8.43021 33.044 8.54192 33.0791 8.64765H33.0789L33.2224 9.4055V9.40593C33.2304 10.2096 33.3458 11.7118 33.9764 13.3912C33.9766 13.3917 33.9767 13.3921 33.9769 13.3926L34.0302 13.674C34.0302 13.6743 34.0302 13.6746 34.0303 13.6749H34.0304L34.0305 13.6749H34.0308C34.04 13.826 34.1209 13.9604 34.2451 14.0527C34.3411 14.1247 34.4623 14.1707 34.5957 14.1802C34.6172 14.1818 34.6389 14.1826 34.6609 14.1819C34.9951 14.1758 35.2614 13.9398 35.2643 13.651Z" fill="white"/>
<path d="M35.0927 13.1457L34.9406 13.1742C34.8653 13.1387 34.7805 13.1159 34.6895 13.1105C34.3492 13.0901 34.0544 13.3132 34.0308 13.6088C34.0073 13.9044 34.2641 14.1606 34.6043 14.181C34.6675 14.1848 34.729 14.1802 34.7877 14.1683L34.7878 14.1686C35.0807 14.091 35.385 14.0506 35.691 14.06L37.9393 14.1295C37.9719 14.1305 38.001 14.1122 38.0101 14.085C38.0189 14.0588 38.0464 14.0407 38.0778 14.0405L38.5826 14.0371C38.624 14.0368 38.6635 14.0222 38.6925 13.9966C38.7748 13.924 38.7388 13.8013 38.6265 13.7718L36.4231 13.193C35.9914 13.0796 35.5336 13.0633 35.0927 13.1457Z" fill="white"/>
<path d="M34.6331 13.1093C34.974 13.1027 35.2567 13.3375 35.2643 13.6338C35.2719 13.93 35.0017 14.1756 34.6607 14.1822C34.3197 14.1888 34.0371 13.954 34.0295 13.6578C34.0218 13.3615 34.2921 13.1159 34.6331 13.1093Z" fill="white"/>
<path d="M34.7876 14.1686C34.7876 14.1686 35.7247 14.0537 37.6206 14.1197L35.8634 13.8833L34.7876 14.1686Z" fill="white"/>
</svg>
