<svg width="45" height="15" viewBox="0 0 45 15" fill="none" xmlns="http://www.w3.org/2000/svg">
<path d="M30.882 9.29908L30.8992 9.30388C31.0814 9.35346 31.2655 9.37533 31.4472 9.37213C31.8534 9.41532 32.2683 9.44251 32.6611 9.44091L41.678 10.5809C41.1944 10.4529 40.8428 10.0621 40.8428 9.59981C40.8428 9.03301 41.3712 8.57338 42.0235 8.57338C42.0426 8.57338 42.0616 8.57392 42.0806 8.57498C42.0923 8.57551 42.1046 8.57605 42.1162 8.57711L36.8919 7.40832C34.9483 6.56479 33.2312 6.43149 32.3413 6.43149C31.9308 6.43149 31.6963 6.45975 31.6963 6.45975L31.697 6.46028C30.8844 6.33658 30.0682 6.74715 29.8037 7.44831C29.5134 8.21773 29.9964 9.04687 30.882 9.29908Z" fill="white"/>
<path d="M40.843 9.59976C40.843 10.062 41.1946 10.4529 41.6782 10.5809C41.7132 10.5905 41.7482 10.5985 41.7844 10.6049H41.7856C41.8623 10.6187 41.9421 10.6256 42.0237 10.6256H42.0348C42.3287 10.623 42.5975 10.5275 42.8031 10.3702C43.0498 10.1826 43.2051 9.90689 43.2051 9.59976C43.2051 9.51978 43.1946 9.44246 43.1744 9.36781C43.0977 9.07828 42.8798 8.83567 42.5871 8.69757C42.5828 8.69544 42.5791 8.69384 42.5754 8.69224C42.4367 8.62825 42.2815 8.58773 42.1164 8.57707C42.1047 8.576 42.0925 8.57547 42.0808 8.57493C42.0618 8.57387 42.0427 8.57333 42.0237 8.57333C41.3714 8.57333 40.843 9.03296 40.843 9.59976Z" fill="white"/>
<path d="M44.5025 8.28364C44.5145 8.28598 44.5268 8.28881 44.5382 8.29153C45.3282 8.48673 44.8165 9.75305 44.8165 9.75305L44.5357 11.8953C43.9998 13.9145 43.2053 14.4427 42.6235 14.5241C42.5421 14.5355 42.4652 14.5285 42.3965 14.5076L42.3952 14.5073C42.3831 14.5038 42.3712 14.4994 42.3593 14.4946C42.3588 14.4945 42.3579 14.4944 42.3575 14.494C42.2832 14.4645 42.2199 14.4185 42.1726 14.3621C42.168 14.3562 42.1632 14.3506 42.1586 14.3442C42.0883 14.2501 42.0596 14.1296 42.0943 14.0063C42.1109 13.9473 42.1222 13.8846 42.1288 13.8184L42.131 13.7999C42.2386 12.6499 41.4879 10.557 41.4879 10.557C41.4879 10.557 43.3903 10.0418 42.2979 8.57381C42.9428 8.55003 43.5863 8.40345 43.9312 8.33429C43.9428 8.33184 43.9543 8.32971 43.9654 8.32752C44.1422 8.29286 44.245 8.26775 44.245 8.26775C44.3425 8.26289 44.4278 8.26855 44.5025 8.28364Z" fill="white"/>
<path d="M44.5024 8.28399C44.4486 14.1045 42.3605 14.4952 42.3605 14.4952L42.3591 14.495C42.3587 14.4949 42.3578 14.4948 42.3574 14.4943C42.2831 14.4649 42.2198 14.4188 42.1726 14.3625C42.1679 14.3565 42.1631 14.3509 42.1585 14.3446C44.173 13.858 43.9486 8.69018 43.931 8.33464C43.9426 8.33219 43.9542 8.33011 43.9653 8.32792C44.1421 8.29326 44.2449 8.26815 44.2449 8.26815C44.3423 8.2633 44.4278 8.2689 44.5024 8.28399Z" fill="white"/>
<path d="M30.2108 6.03949L28.9475 9.29515C28.9475 9.29515 29.9959 9.39208 31.2123 9.36238C31.4023 9.38158 31.5881 9.37289 31.7653 9.33983C32.4447 9.21223 32.9903 8.72563 33.0838 8.09218C33.1918 7.35987 32.6586 6.68483 31.8631 6.49304C31.786 6.47411 31.7059 6.46003 31.624 6.45091C31.5939 6.44755 31.5642 6.44505 31.5343 6.44291C31.1109 6.36757 30.698 6.24616 30.3053 6.08017C30.2434 6.05421 30.2108 6.03949 30.2108 6.03949Z" fill="white"/>
<path d="M25.2832 3.7894L25.7479 4.00157L29.3362 5.64001L29.608 5.7644L30.2109 6.03959C30.2109 6.03959 30.1714 6.4741 30.0504 7.03504C29.9784 7.3708 29.8772 7.75177 29.7374 8.11222C29.5507 8.596 29.2952 9.0431 28.9492 9.29514L28.9491 9.29552L28.9473 9.2952L28.3094 9.14233L28.0342 9.07653L23.8052 8.06535L23.5942 8.01486L20.1249 7.39415C20.0572 7.39069 19.7752 7.34094 19.5005 7.2785C19.1773 7.17063 18.8833 7.01632 18.6284 6.82581C17.8929 6.27676 17.4793 5.42726 17.612 4.52886C17.7746 3.42826 18.7083 2.57849 19.8815 2.33561C19.879 2.33268 19.8766 2.3298 19.874 2.32692C19.874 2.32692 20.1656 2.26928 20.6259 2.23777C21.7711 2.1596 23.9586 2.24465 25.2832 3.7894Z" fill="white"/>
<path d="M29.3365 5.64014L29.6084 5.76437C29.5642 6.16817 29.2796 8.38189 28.3097 9.14246L28.0344 9.0765C29.0824 8.25056 29.3282 5.7302 29.3365 5.64014Z" fill="white"/>
<path d="M30.887 9.07816L30.9035 9.08321C31.0844 9.13557 31.2685 9.1601 31.4495 9.15888C31.855 9.20848 32.2682 9.24157 32.6612 9.24546L41.4536 10.4896L41.7342 10.5294C41.7623 10.5336 42.0999 10.5758 42.2772 10.5981C41.7424 10.4937 41.3484 10.0729 41.3598 9.57537C41.3728 9.00603 41.9113 8.55171 42.563 8.56082C42.5821 8.56108 42.6011 8.56188 42.62 8.56322L41.8408 8.44143L36.9342 7.26278C34.1256 5.98485 31.7659 6.23746 31.7659 6.23746L31.7665 6.238C30.957 6.1024 30.1327 6.50343 29.8523 7.20405C29.5446 7.97287 30.0075 8.81192 30.887 9.07816Z" fill="white"/>
<path d="M41.3688 9.5808C41.3577 10.077 41.7514 10.4963 42.2857 10.6002L42.2869 10.6003C42.3504 10.6081 42.3926 10.6134 42.3926 10.6134C42.4402 10.6194 42.4879 10.6233 42.535 10.6244L42.5491 10.6246C43.1786 10.6331 43.7188 10.1991 43.7425 9.63416C43.7587 9.23689 43.5119 8.87988 43.1294 8.70056C43.1251 8.69836 43.1215 8.69671 43.1179 8.69506C43.0136 8.64771 42.8998 8.61305 42.7783 8.59432L42.6269 8.57091C42.608 8.56959 42.589 8.5688 42.57 8.56854C41.919 8.55977 41.3815 9.01306 41.3688 9.5808Z" fill="white"/>
<path d="M44.5251 8.25678C44.537 8.25929 44.5492 8.26228 44.5605 8.26516C45.3429 8.4712 44.8055 9.73152 44.8055 9.73152L44.4787 11.8715C43.9006 13.885 43.0978 14.4028 42.5167 14.4764C42.4354 14.4867 42.359 14.4787 42.291 14.4568L42.2897 14.4565C42.2777 14.4528 42.2659 14.4483 42.2542 14.4433C42.2538 14.4432 42.2528 14.4431 42.2525 14.4426C42.1791 14.4122 42.1171 14.3652 42.0713 14.3082C42.0668 14.3022 42.0621 14.2965 42.0577 14.2901C41.9897 14.195 41.9638 14.0739 42.0011 13.951C42.0189 13.8922 42.0315 13.8296 42.0396 13.7635L42.0421 13.745C42.1746 12.5956 41.4731 10.491 41.4731 10.491C41.4731 10.491 43.3789 10.0012 42.3234 8.51734C42.9661 8.50226 43.6102 8.36428 43.9551 8.29974C43.9667 8.29744 43.9782 8.29547 43.9893 8.29343C44.1662 8.26114 44.2691 8.23739 44.2691 8.23739C44.3662 8.23386 44.4511 8.24067 44.5251 8.25678Z" fill="white"/>
<path d="M44.5231 8.2579C44.3417 14.0803 42.2575 14.4434 42.2575 14.4434L42.2561 14.4432C42.2557 14.4431 42.2548 14.443 42.2544 14.4425C42.1812 14.412 42.1193 14.3651 42.0736 14.3082C42.0691 14.3021 42.0645 14.2965 42.06 14.29C44.0731 13.83 43.9636 8.65692 43.954 8.30099C43.9655 8.29869 43.9771 8.29676 43.9881 8.29472C44.1647 8.2624 44.2674 8.23864 44.2674 8.23864C44.3644 8.23508 44.4491 8.24181 44.5231 8.2579Z" fill="white"/>
<path d="M30.1863 5.84748L29.0251 9.14117C29.0251 9.14117 30.0742 9.21055 31.287 9.1487C31.4772 9.16289 31.6624 9.14932 31.838 9.11154C32.5121 8.96583 33.0416 8.46406 33.1155 7.82724C33.201 7.09108 32.6483 6.42913 31.8488 6.25802C31.7712 6.24112 31.6908 6.22915 31.6089 6.22218C31.5787 6.21964 31.5489 6.21791 31.5191 6.21655C31.0944 6.15227 30.6787 6.04158 30.2818 5.88573C30.2192 5.86138 30.1863 5.84748 30.1863 5.84748Z" fill="white"/>
<path d="M25.1861 3.71058L25.6563 3.91125L29.2876 5.46077L29.5627 5.57845L30.1728 5.83866C30.1728 5.83866 30.1462 6.27526 30.0419 6.84075C29.9801 7.17914 29.8902 7.56368 29.7613 7.92864C29.5892 8.41847 29.3474 8.87326 29.0095 9.13487L29.0094 9.13525L29.0075 9.13495L28.3661 8.99823L28.0893 8.93941L23.8369 8.03529L23.6248 7.99015L20.1424 7.45778C20.0746 7.45604 19.7917 7.4135 19.5155 7.35795C19.1896 7.25823 18.8915 7.11113 18.6314 6.9268C17.8807 6.39545 17.4426 5.55454 17.5485 4.65057C17.6782 3.54305 18.5854 2.66698 19.7496 2.39313C19.747 2.39026 19.7444 2.3875 19.7417 2.38468C19.7417 2.38468 20.0312 2.31938 20.4899 2.27584C21.631 2.16784 23.8178 2.1964 25.1861 3.71058Z" fill="white"/>
<path d="M29.2948 5.46865L29.5687 5.58583C29.5367 5.99078 29.3192 8.21223 28.3775 8.99803L28.102 8.9392C29.1194 8.08598 29.2892 5.55897 29.2948 5.46865Z" fill="white"/>
<path d="M1.40936 3.90513C1.5235 4.07549 1.87116 4.30392 2.21335 4.40021C2.5553 4.49592 2.71419 4.72968 2.98501 4.64042C3.25467 4.55111 3.57458 4.71129 3.81675 4.9837C4.08573 5.28694 4.2675 5.42349 4.43768 5.18653C4.60773 4.94856 4.57686 4.98375 4.65216 5.01249C4.72808 5.03963 4.81719 5.17662 4.99994 5.04849C4.99994 5.04849 5.12139 5.19288 5.27144 5.10757C5.42155 5.02375 5.48451 4.98674 5.59522 5.07637C5.70716 5.16654 6.0933 5.36974 6.32288 5.07819C6.55338 4.78412 6.54295 4.0966 6.67538 4.03315C6.80861 3.97071 6.79155 4.10343 7.31307 3.84818C7.8333 3.59438 8.59483 3.84509 8.59483 3.84509C8.59483 3.84509 9.91518 2.4539 8.91284 1.49626C8.91284 1.49626 6.62463 1.37842 6.39241 1.25728C6.39241 1.25728 6.42125 1.64945 6.2153 1.57859C6.2153 1.57859 5.91066 1.7209 5.76712 1.64844C5.76712 1.64844 5.3638 1.68672 5.21486 1.52622C5.21486 1.52622 5.03486 1.55038 4.92912 1.44507C4.82314 1.33763 4.72151 1.25104 4.50641 1.19676C4.29254 1.14205 3.33549 1.89355 3.23908 1.91227C3.14205 1.93253 2.9234 2.06844 2.81888 1.98932C2.71431 1.91125 2.62962 1.92224 2.56058 1.97695C2.49246 2.03064 1.40936 3.90513 1.40936 3.90513Z" fill="white"/>
<path d="M6.59229 1.26111C5.76515 1.2979 4.98816 0.68434 4.34157 0.308002C3.69523 -0.0683887 1.88656 -0.316703 1.27072 0.906741C0.654943 2.12816 0.730182 3.59629 1.14441e-05 3.58808C1.14441e-05 3.58808 0.907538 4.27922 1.53712 3.97903C1.53712 3.97903 2.53818 2.51953 4.37987 2.79328L4.51862 2.49863C4.51862 2.49863 3.6365 2.38074 3.77618 1.96809C3.90769 1.57714 4.36606 1.90549 4.60828 1.91413C4.84971 1.92271 5.31041 1.72212 5.20473 2.15562C5.20473 2.15562 5.55521 2.32507 6.18375 1.73183C6.4763 1.45664 6.59229 1.26111 6.59229 1.26111Z" fill="white"/>
<path d="M6.4993 4.6414C6.50077 4.63068 6.59178 3.93794 6.35251 3.38644C6.08438 2.7676 5.515 2.49438 5.515 2.49438C5.515 2.49438 6.77914 3.0301 6.93066 3.99942C6.82192 4.0313 6.72833 4.008 6.67537 4.03311C6.59234 4.07241 6.56552 4.36029 6.4993 4.6414Z" fill="white"/>
<path d="M11.9704 1.41211C13.323 2.00962 13.9313 3.32829 13.3291 4.35728C12.727 5.38632 11.142 5.73578 9.7894 5.13827C8.43725 4.54081 7.82853 3.22208 8.43111 2.19315C9.03327 1.16417 10.6178 0.814596 11.9704 1.41211Z" fill="white"/>
<path d="M17.955 7.03842L19.2435 7.26045C19.2435 7.26045 21.3852 4.08125 20.01 2.33601L11.3061 0.836366C11.3061 0.836366 8.14873 0.21134 7.68785 2.51021C7.4911 3.49414 7.90939 4.50014 8.73505 5.24087C9.6068 6.02367 11.0419 6.9618 12.9541 7.01405L17.955 7.03842Z" fill="white"/>
<path d="M11.9295 1.4819C13.2314 2.05712 13.817 3.32626 13.2371 4.31653C12.6576 5.30691 11.1324 5.64342 9.83048 5.06857C8.52866 4.49335 7.94344 3.22431 8.52289 2.23399C9.1024 1.24361 10.6276 0.907046 11.9295 1.4819ZM8.6865 2.30597C8.14669 3.22767 8.69196 4.40899 9.9032 4.94412C11.1148 5.47941 12.5345 5.16631 13.0739 4.24455C13.6133 3.3228 13.0684 2.14163 11.8568 1.6064C10.6452 1.07111 9.22587 1.38421 8.6865 2.30597Z" fill="white"/>
<path d="M11.8564 1.60629C13.068 2.14152 13.6129 3.32273 13.0736 4.24449C12.5342 5.16625 11.1144 5.47929 9.90281 4.94406C8.69157 4.40888 8.14636 3.22761 8.68616 2.30591C9.22554 1.38415 10.6448 1.07105 11.8564 1.60629Z" fill="white"/>
<path d="M12.81 3.12484C12.7904 2.13873 11.8606 1.34702 10.7221 1.35315C9.68313 1.35881 8.82759 2.02681 8.6814 2.89295C8.68067 2.89839 8.67956 2.90383 8.67877 2.90927C8.66533 2.99389 8.65888 3.08011 8.65956 3.16771C8.65956 3.17448 8.65962 3.18163 8.66011 3.1884C8.66827 3.60158 8.83661 3.98027 9.11265 4.28073H9.11246L9.28724 8.30698C9.27656 8.95163 9.86933 9.48174 10.6113 9.49102C11.3532 9.5003 11.9633 8.98527 11.974 8.34062C11.9743 8.32447 11.9739 8.30847 11.9734 8.29242H11.9739L12.3735 4.26303C12.5885 4.02292 12.7356 3.73467 12.7887 3.41997C12.7901 3.41181 12.7912 3.40334 12.7923 3.39518C12.805 3.31328 12.8111 3.2301 12.8105 3.14521C12.8104 3.13844 12.8104 3.13161 12.81 3.12484Z" fill="white"/>
<path d="M9.34387 8.65912C9.34387 8.65912 8.70857 6.28725 9.1195 4.44059C9.53037 2.59388 9.61377 5.34566 9.61377 5.34566L9.44102 8.06241L9.34387 8.65912Z" fill="white"/>
<path d="M12.2983 4.2106C12.2983 4.2106 12.4003 6.67498 11.928 8.28196C11.4557 9.88894 12.2983 4.2106 12.2983 4.2106Z" fill="white"/>
<path d="M9.73619 13.651H9.73564L9.65009 12.6007C9.51183 12.0427 9.33797 11.0278 9.40774 9.62326L9.36313 8.71121H9.36325C9.31526 8.59279 9.28832 8.46572 9.28709 8.33317C9.2812 7.68847 9.87795 7.16171 10.6199 7.15659C11.3619 7.15147 11.9682 7.66991 11.9741 8.31456C11.9751 8.43021 11.9565 8.54192 11.9214 8.64765H11.9216L11.7781 9.4055V9.40593C11.7701 10.2096 11.6547 11.7118 11.0241 13.3912C11.0239 13.3917 11.0238 13.3921 11.0236 13.3926L10.9703 13.674C10.9703 13.6743 10.9703 13.6746 10.9702 13.6749H10.9701L10.97 13.6749H10.9697C10.9605 13.826 10.8796 13.9604 10.7554 14.0527C10.6594 14.1247 10.5382 14.1707 10.4048 14.1802C10.3833 14.1818 10.3616 14.1826 10.3396 14.1819C10.0054 14.1758 9.73908 13.9398 9.73619 13.651Z" fill="white"/>
<path d="M9.90734 13.1457L10.0594 13.1742C10.1347 13.1387 10.2195 13.1159 10.3105 13.1105C10.6508 13.0901 10.9456 13.3132 10.9692 13.6088C10.9927 13.9044 10.7359 14.1606 10.3957 14.181C10.3325 14.1848 10.271 14.1802 10.2123 14.1683L10.2122 14.1686C9.91931 14.091 9.61504 14.0506 9.30899 14.06L7.06067 14.1295C7.02814 14.1305 6.99899 14.1122 6.98985 14.085C6.98107 14.0588 6.95358 14.0407 6.92216 14.0405L6.4174 14.0371C6.37604 14.0368 6.33651 14.0222 6.30749 13.9966C6.22519 13.924 6.26121 13.8013 6.37352 13.7718L8.57686 13.193C9.00859 13.0796 9.4664 13.0633 9.90734 13.1457Z" fill="white"/>
<path d="M10.3669 13.1093C10.026 13.1027 9.74335 13.3375 9.73568 13.6338C9.72807 13.93 9.99834 14.1756 10.3393 14.1822C10.6803 14.1888 10.9629 13.954 10.9705 13.6578C10.9782 13.3615 10.7079 13.1159 10.3669 13.1093Z" fill="white"/>
<path d="M10.2124 14.1686C10.2124 14.1686 9.2753 14.0537 7.37936 14.1197L9.1366 13.8833L10.2124 14.1686Z" fill="white"/>
</svg>
