<svg width="25" height="35" viewBox="0 0 25 35" fill="none" xmlns="http://www.w3.org/2000/svg">
<mask id="mask0_32_198" style="mask-type:luminance" maskUnits="userSpaceOnUse" x="0" y="0" width="25" height="35">
<path d="M12.5 34C18.8513 34 24 28.8289 24 22.45C24 16.0711 18.8513 10.9 12.5 10.9C6.14873 10.9 1 16.0711 1 22.45C1 28.8289 6.14873 34 12.5 34Z" fill="white" stroke="white" stroke-width="2"/>
<path d="M18.25 7.6V6.775C18.25 5.24338 17.6442 3.77448 16.5659 2.69146C15.4875 1.60844 14.025 1 12.5 1C10.975 1 9.51247 1.60844 8.43414 2.69146C7.3558 3.77448 6.75 5.24338 6.75 6.775V11.725" stroke="white" stroke-width="2" stroke-linecap="round" stroke-linejoin="round"/>
<path d="M12.5 19.15V25.75" stroke="black" stroke-width="2" stroke-linecap="round" stroke-linejoin="round"/>
</mask>
<g mask="url(#mask0_32_198)">
<path d="M-7.21436 -2.29999H32.2142V37.3H-7.21436V-2.29999Z" fill="white" fill-opacity="0.4"/>
</g>
</svg>
